
<svg width="39px" height="37px" viewBox="0 0 39 37" version="1.1" xmlns="http://www.w3.org/2000/svg" xmlns:xlink="http://www.w3.org/1999/xlink">
    <defs>
        <path d="M13.7791012,23.7626133 L7.69715548,26.4003003 C6.80026889,26.7892723 5.75051985,26.394098 5.35247538,25.517654 C5.22654228,25.2403651 5.17715783,24.9356708 5.20924174,24.6339249 L5.89691804,18.1664005 C5.9488052,17.6784071 5.78698975,17.1917415 5.45148655,16.8267499 L1.00496106,11.9894057 C0.34924507,11.2760569 0.40945388,10.1783263 1.13944121,9.5375559 C1.37039421,9.3348293 1.6516741,9.1947767 1.95525955,9.1313502 L8.46221263,7.77188736 C8.95318105,7.66931196 9.3768194,7.36853612 9.6283674,6.94393779 L12.9622093,1.31660761 C13.4538411,0.48676183 14.5408012,0.20350126 15.3900027,0.68392742 C15.6586726,0.83592439 15.8818976,1.05406145 16.0374398,1.31660761 L19.3712817,6.94393779 C19.6228297,7.36853612 20.046468,7.66931196 20.5374364,7.77188736 L27.0443895,9.1313502 C28.0039507,9.3318262 28.6155202,10.2544921 28.4103682,11.1921822 C28.3454623,11.4888481 28.2021431,11.7637168 27.994688,11.9894057 L23.5481625,16.8267499 C23.2126593,17.1917415 23.0508438,17.6784071 23.102731,18.1664005 L23.7904073,24.6339249 C23.8918169,25.5876717 23.1828275,26.4411711 22.2068352,26.5402693 C21.8980512,26.5716219 21.5862501,26.5233631 21.3024936,26.4003003 L15.2205478,23.7626133 C14.7616474,23.5635922 14.2380016,23.5635922 13.7791012,23.7626133 L13.7791012,23.7626133 Z" id="path-1"></path>
    </defs>
    <g id="Page-1" stroke="none" stroke-width="1" fill="none" fill-rule="evenodd">
        <g id="Group" transform="translate(-581.000000, -60.000000)">
            <g id="Molecule/indicator/status-Clipped">
                <g id="Molecule/indicator/status" transform="translate(552.000000, 0.000000)">
                    <g id="Group">
                        <g id="Molecule/priority" transform="translate(32.000000, 62.000000)">
                            <g id="atom/icon/star">
                                <path d="M16.4998245,29.1750283 L10.6918653,31.6938898 C8.55124372,32.6222587 6.04184755,31.6776057 5.07622746,29.5514313 C4.76597525,28.8682948 4.64395211,28.1154311 4.72325498,27.3695959 L5.37290995,21.2596581 L1.16440737,16.6812574 C-0.44183799,14.9338342 -0.29321761,12.224179 1.49022039,10.6587077 C2.04593266,10.170913 2.71944472,9.83556327 3.44398715,9.6841885 L9.64384475,8.38888545 L12.8113342,3.0423484 C13.9999975,1.03595424 16.592438,0.36036722 18.6210055,1.50800643 C19.2686514,1.8744048 19.8094928,2.4029189 20.1883148,3.0423484 L23.3558043,8.38888545 L29.5556619,9.6841885 C31.8642354,10.1665064 33.3573986,12.4192198 32.8526007,14.7265046 C32.6928804,15.4565395 32.3414295,16.1305791 31.8352417,16.6812574 L27.6267391,21.2596581 L28.2763941,27.3695959 C28.5256385,29.7137137 26.8011404,31.7897082 24.4593763,32.0274812 C23.7255127,32.1019946 22.9842458,31.9872655 22.3077838,31.6938898 L16.4998245,29.1750283 Z" id="Path" stroke="#5D5D5D" stroke-width="5"></path>
                                <g id="Colour/@prism-yellow-Clipped" transform="translate(2.000000, 3.000000)">
                                    <mask id="mask-2" fill="white">
                                        <use xlink:href="#path-1"></use>
                                    </mask>
                                    <g id="path-11"></g>
                                    <g id="Colour/@prism-yellow" mask="url(#mask-2)" fill="#FFCE2B">
                                        <g transform="translate(-1.000000, -1.000000)" id="Rectangle-Copy">
                                            <rect x="0" y="0" width="31" height="29"></rect>
                                        </g>
                                    </g>
                                </g>
                            </g>
                        </g>
                    </g>
                </g>
            </g>
        </g>
    </g>
</svg>