
<svg width="76px" height="76px" viewBox="0 0 76 76" version="1.1" xmlns="http://www.w3.org/2000/svg" xmlns:xlink="http://www.w3.org/1999/xlink">
    <defs>
        <path d="M31.3256545,58.4795916 L17.199845,65.0283319 C15.1167536,65.9940553 12.6786268,65.0129331 11.7541364,62.8369341 C11.4616466,62.1484927 11.3469472,61.3920102 11.4214647,60.642848 L13.0186483,44.585546 C13.1391605,43.3739761 12.763331,42.1657031 11.9840978,41.259517 L1.65668375,29.249559 C0.13373048,27.478486 0.27357031,24.753086 1.96902475,23.1622078 C2.50543172,22.6588866 3.15872694,22.3111698 3.86382863,22.1536971 L18.9767519,18.778479 C20.1170657,18.523809 21.1009999,17.7770552 21.6852404,16.72288 L29.428357,2.75157751 C30.5702116,0.69127076 33.0947641,-0.01199686 35.067103,1.18078531 C35.6911105,1.5581571 36.2095685,2.09973876 36.5708279,2.75157751 L44.3139445,16.72288 C44.898185,17.7770552 45.8821192,18.523809 47.022433,18.778479 L62.1353562,22.1536971 C64.3640144,22.6514306 65.7844339,24.9421873 65.3079519,27.2702454 C65.1572028,28.0067952 64.8243323,28.6892279 64.3425011,29.249559 L54.0150871,41.259517 C53.2358538,42.1657031 52.8600244,43.3739761 52.9805365,44.585546 L54.5777202,60.642848 C54.8132522,63.010771 53.1665671,65.1298041 50.8997462,65.375841 C50.1825706,65.453682 49.4583872,65.3338669 48.7993399,65.0283319 L34.6735304,58.4795916 C33.6076972,57.9854702 32.3914877,57.9854702 31.3256545,58.4795916 L31.3256545,58.4795916 Z" id="path-1"></path>
    </defs>
    <g id="Page-1" stroke="none" stroke-width="1" fill="none" fill-rule="evenodd">
        <g id="Group" transform="translate(3.000000, 3.000000)">
            <path d="M34.3771551,62.7477068 L20.2513456,69.2964471 C16.871074,70.8635446 12.923394,69.2749658 11.4531914,65.8145088 C10.9963439,64.7392141 10.8177615,63.5614005 10.933741,62.3953998 L12.5309246,46.3380977 C12.5841047,45.8034508 12.4195635,45.2744589 12.0885451,44.8895109 L1.76113105,32.8795529 C-0.632957728,30.0954188 -0.415002576,25.8475949 2.2583768,23.3391106 C3.11961739,22.5309916 4.17494598,21.9692922 5.31891959,21.7138049 L20.4318429,18.3385867 C20.8682234,18.2411285 21.2578456,17.9454259 21.4986047,17.511012 L29.2417213,3.53970944 C31.0647212,0.25037723 35.1641952,-0.891618133 38.3608143,1.0415539 C39.3604719,1.64610199 40.185817,2.50825822 40.7574636,3.53970944 L48.5005802,17.511012 C48.7413392,17.9454259 49.1309615,18.2411285 49.567342,18.3385867 L64.6802653,21.7138049 C68.2611442,22.5135342 70.5027619,26.128664 69.7571797,29.7715271 C69.5214126,30.9234691 68.9988389,31.9948206 68.2380538,32.8795529 L57.9106398,44.8895109 C57.5796214,45.2744589 57.4150801,45.8034508 57.4682603,46.3380977 L59.0654439,62.3953998 C59.4344913,66.1056218 56.8242844,69.4645609 53.1695076,69.8612441 C51.9995127,69.9882334 50.8186008,69.7928533 49.7478393,69.2964471 L35.6220298,62.7477068 C35.2231057,62.5627652 34.7760792,62.5627652 34.3771551,62.7477068 Z" id="Path" stroke="#5D5D5D" stroke-width="5"></path>
            <g id="Colour/@prism-yellow-Clipped" transform="translate(2.000000, 2.000000)">
                <g>
                    <mask id="mask-2" fill="white">
                        <use xlink:href="#path-1"></use>
                    </mask>
                    <g id="path-1"></g>
                    <g id="Colour/@prism-yellow" mask="url(#mask-2)">
                        <g transform="translate(-3.000000, -3.000000)" id="Rectangle-Copy">
                            <g>
                                <rect id="Rectangle" fill="#FFCE2B" fill-rule="nonzero" x="0" y="0" width="72" height="72"></rect>
                            </g>
                        </g>
                    </g>
                </g>
            </g>
        </g>
    </g>
</svg>