
<svg width="100px" height="100px" viewBox="0 0 100 100" version="1.1" xmlns="http://www.w3.org/2000/svg" xmlns:xlink="http://www.w3.org/1999/xlink">
    <defs>
        <path d="M47.6745201,85.3883217 L28.0553403,94.4837943 C25.1621577,95.8250768 21.7758705,94.4624071 20.4918561,91.4401863 C20.0856203,90.4840177 19.9263156,89.4333476 20.0298121,88.3928445 L22.2481227,66.0910361 C22.4155006,64.4083002 21.8935153,62.7301431 20.8112469,61.4715514 L6.46761632,44.7910542 C4.35240345,42.3312305 4.54662543,38.5459528 6.90142327,36.3363997 C7.64643295,35.6373425 8.55378742,35.1544025 9.53309532,34.9356905 L30.5232666,30.2478875 C32.1070356,29.8941792 33.4736109,28.8570211 34.2850561,27.3928889 L45.0393847,7.9883021 C46.6252938,5.12676494 50.1316169,4.15000436 52.8709764,5.80664627 C53.7376535,6.33077375 54.4577341,7.0829705 54.9594832,7.9883021 L65.7138118,27.3928889 C66.525257,28.8570211 67.8918322,29.8941792 69.4756013,30.2478875 L90.4657726,34.9356905 C93.5611312,35.6269869 95.533936,38.8085935 94.8721554,42.0420075 C94.6627817,43.0649933 94.2004615,44.0128165 93.5312516,44.7910542 L79.1876209,61.4715514 C78.1053526,62.7301431 77.5833672,64.4083002 77.7507452,66.0910361 L79.9690558,88.3928445 C80.2961835,91.6816264 78.009121,94.6247279 74.8607586,94.9664458 C73.8646813,95.0745583 72.8588712,94.9081485 71.9435276,94.4837943 L52.3243477,85.3883217 C50.8440239,84.702042 49.154844,84.702042 47.6745201,85.3883217 L47.6745201,85.3883217 Z" id="path-1"></path>
    </defs>
    <g id="Symbols" stroke="none" stroke-width="1" fill="none" fill-rule="evenodd">
        <g id="Molecule/priority">
            <g id="atom/icon/star">
                <mask id="mask-2" fill="white">
                    <use xlink:href="#path-1"></use>
                </mask>
                <path stroke="#5D5D5D" stroke-width="5" d="M48.7260207,87.6564369 L29.1068409,96.7519095 C24.9164781,98.6945661 20.0206377,96.7244398 18.1909111,92.417761 C17.6203176,91.074739 17.3971298,89.6027378 17.5420883,88.1453962 L19.760399,65.8435878 C19.8604449,64.8377749 19.5497478,63.8388989 18.9156942,63.1015453 L4.57206362,46.4210481 C1.58571524,42.9481633 1.85805255,37.6404617 5.19077532,34.5133025 C6.26061861,33.5094475 7.57000646,32.8125249 8.98818628,32.4957982 L29.9783575,27.8079952 C30.8581934,27.6114986 31.6304567,27.0253918 32.0984204,26.1810209 L42.852749,6.77643403 C45.1198034,2.68587141 50.2010479,1.27038309 54.1646877,3.66741486 C55.4070148,4.41871864 56.4339826,5.49148996 57.1461189,6.77643403 L67.9004475,26.1810209 C68.3684112,27.0253918 69.1406745,27.6114986 70.0205104,27.8079952 L91.0106816,32.4957982 C95.4582609,33.4890905 98.2522639,37.9950702 97.3213832,42.5432892 C97.0269914,43.9816672 96.3749681,45.3184092 95.4268043,46.4210481 L81.0831736,63.1015453 C80.4491201,63.8388989 80.138423,64.8377749 80.2384689,65.8435878 L82.4567796,88.1453962 C82.9174227,92.7764771 79.6668383,96.9594847 75.13052,97.4518489 C73.6816235,97.6091097 72.2190847,97.3671348 70.892027,96.7519095 L51.2728471,87.6564369 C50.4594324,87.2793369 49.5394355,87.2793369 48.7260207,87.6564369 Z"></path>
                <g id="Colour/@prism-yellow" mask="url(#mask-2)" fill="#FFCE2B" fill-rule="evenodd">
                    <rect id="Rectangle-Copy" x="0" y="0" width="100" height="100"></rect>
                </g>
            </g>
        </g>
    </g>
</svg>