
<svg width="10px" height="10px" viewBox="0 0 10 10" version="1.1" xmlns="http://www.w3.org/2000/svg" xmlns:xlink="http://www.w3.org/1999/xlink">
    <defs>
        <path d="M5,2.51666667 C5.23011865,2.51666667 5.41666667,2.70321469 5.41666667,2.93333334 L5.41666667,7.1 C5.41666667,7.33011865 5.23011865,7.51666667 5,7.51666667 C4.76988135,7.51666667 4.58333333,7.33011865 4.58333333,7.1 L4.58333333,2.93333334 C4.58333333,2.70321469 4.76988135,2.51666667 5,2.51666667 Z" id="path-1"></path>
        <path d="M5,10 C2.23857625,10 0,7.76142375 0,5 C0,2.23857625 2.23857625,0 5,0 C7.76142375,0 10,2.23857625 10,5 C10,7.76142375 7.76142375,10 5,10 Z M5,9.72972973 C7.6121576,9.72972973 9.72972973,7.6121576 9.72972973,5 C9.72972973,2.3878424 7.6121576,0.27027027 5,0.27027027 C2.3878424,0.27027027 0.27027027,2.3878424 0.27027027,5 C0.27027027,7.6121576 2.3878424,9.72972973 5,9.72972973 Z" id="path-3"></path>
    </defs>
    <g id="Page-1" stroke="none" stroke-width="1" fill="none" fill-rule="evenodd">
        <mask id="mask-2" fill="white">
            <use xlink:href="#path-1"></use>
        </mask>
        <use id="path-3" fill="#0C75B7" transform="translate(5.000000, 5.016667) rotate(90.000000) translate(-5.000000, -5.016667) " xlink:href="#path-1"></use>
        <mask id="mask-4" fill="white">
            <use xlink:href="#path-3"></use>
        </mask>
        <use id="path-5" fill="#005285" xlink:href="#path-3"></use>
    </g>
</svg>