
<svg width="20px" height="20px" viewBox="0 0 20 20" version="1.1" xmlns="http://www.w3.org/2000/svg" xmlns:xlink="http://www.w3.org/1999/xlink">
    <defs>
        <path d="M12.2861373,9.9528497 C12.2875864,9.954265 12.2890336,9.9556835 12.2904789,9.9571052 L19.3480898,16.8997364 C19.997725,17.538788 20.0063047,18.5834749 19.3672531,19.2331101 C18.7282015,19.8827452 17.6835146,19.8913249 17.0338794,19.2522734 L9.9762685,12.3096422 C9.9683654,12.3018679 9.9605573,12.2940336 9.952844,12.2861407 C8.9702254,12.8667944 7.8240249,13.2 6.6,13.2 C2.9549207,13.2 0,10.2450793 0,6.6 C0,2.9549207 2.9549207,0 6.6,0 C10.2450793,0 13.2,2.9549207 13.2,6.6 C13.2,7.8240272 12.8667931,8.9702298 12.2861373,9.9528497 Z M6.6,11 C9.0300529,11 11,9.0300529 11,6.6 C11,4.1699471 9.0300529,2.2 6.6,2.2 C4.1699471,2.2 2.2,4.1699471 2.2,6.6 C2.2,9.0300529 4.1699471,11 6.6,11 Z" id="path-1"></path>
    </defs>
    <g id="Symbols" stroke="none" stroke-width="1" fill="none" fill-rule="evenodd">
        <g id="lookingGlass" transform="translate(0.000000, 0.000000)">
            <g id="Group">
                <g id="Combined-Shape" fill="#D8D8D8">
                    <path d="M12.2861373,9.9528497 C12.2875864,9.954265 12.2890336,9.9556835 12.2904789,9.9571052 L19.3480898,16.8997364 C19.997725,17.538788 20.0063047,18.5834749 19.3672531,19.2331101 C18.7282015,19.8827452 17.6835146,19.8913249 17.0338794,19.2522734 L9.9762685,12.3096422 C9.9683654,12.3018679 9.9605573,12.2940336 9.952844,12.2861407 C8.9702254,12.8667944 7.8240249,13.2 6.6,13.2 C2.9549207,13.2 0,10.2450793 0,6.6 C0,2.9549207 2.9549207,0 6.6,0 C10.2450793,0 13.2,2.9549207 13.2,6.6 C13.2,7.8240272 12.8667931,8.9702298 12.2861373,9.9528497 Z M6.6,11 C9.0300529,11 11,9.0300529 11,6.6 C11,4.1699471 9.0300529,2.2 6.6,2.2 C4.1699471,2.2 2.2,4.1699471 2.2,6.6 C2.2,9.0300529 4.1699471,11 6.6,11 Z" id="path-1"></path>
                </g>
                <g id="Colour/@prism-dark-Clipped">
                    <mask id="mask-2" fill="white">
                        <use xlink:href="#path-1"></use>
                    </mask>
                    <g id="path-1"></g>
                    <g id="Colour/@prism-dark" mask="url(#mask-2)" fill="#005285">
                        <g transform="translate(-10.000000, -10.000000)" id="Rectangle">
                            <rect x="0" y="0" width="40" height="40"></rect>
                        </g>
                    </g>
                </g>
            </g>
        </g>
    </g>
</svg>