
<svg width="37px" height="36px" viewBox="0 0 37 36" version="1.1" xmlns="http://www.w3.org/2000/svg" xmlns:xlink="http://www.w3.org/1999/xlink">
    <defs>
        <circle id="path-1" cx="18" cy="18" r="18"></circle>
        <circle id="path-3" cx="18" cy="18" r="18"></circle>
        <path d="M2.16,0.8 L3.92,0.8 C5.0245695,0.8 5.92,1.6954305 5.92,2.8 L5.92,13.2 C5.92,14.3045695 5.0245695,15.2 3.92,15.2 L2.16,15.2 C1.0554305,15.2 0.16,14.3045695 0.16,13.2 L0.16,2.8 C0.16,1.6954305 1.0554305,0.8 2.16,0.8 Z M10.08,0.8 L11.84,0.8 C12.9445695,0.8 13.84,1.6954305 13.84,2.8 L13.84,13.2 C13.84,14.3045695 12.9445695,15.2 11.84,15.2 L10.08,15.2 C8.9754305,15.2 8.08,14.3045695 8.08,13.2 L8.08,2.8 C8.08,1.6954305 8.9754305,0.8 10.08,0.8 Z" id="path-5"></path>
        <path d="M18,36 C8.0588745,36 0,27.9411255 0,18 C0,8.0588745 8.0588745,0 18,0 C27.9411255,0 36,8.0588745 36,18 C36,27.9411255 27.9411255,36 18,36 Z M18,35.027027 C27.4037674,35.027027 35.027027,27.4037674 35.027027,18 C35.027027,8.59623264 27.4037674,0.972972973 18,0.972972973 C8.59623264,0.972972973 0.972972973,8.59623264 0.972972973,18 C0.972972973,27.4037674 8.59623264,35.027027 18,35.027027 Z" id="path-7"></path>
    </defs>
    <g id="Page-1" stroke="none" stroke-width="1" fill="none" fill-rule="evenodd">
        <g id="Group" transform="translate(-534.000000, -46.000000)">
            <g id="atom/button/circular-Clipped">
                <g id="atom/button/circular" transform="translate(534.000000, 46.000000)">
                    <g id="Group" transform="translate(0.500000, 0.000000)">
                        <g id="Colour/@prism-paper-Clipped">
                            <mask id="mask-2" fill="white">
                                <use xlink:href="#path-1"></use>
                            </mask>
                            <g id="path-44"></g>
                            <g id="Colour/@prism-paper" mask="url(#mask-2)" fill="#FFFFFF" fill-rule="nonzero">
                                <rect id="Rectangle" x="0" y="0" width="36" height="36"></rect>
                            </g>
                        </g>
                        <g id="atom/icon/pause-Clipped">
                            <mask id="mask-4" fill="white">
                                <use xlink:href="#path-3"></use>
                            </mask>
                            <g id="path-44"></g>
                            <g id="atom/icon/pause" mask="url(#mask-4)">
                                <g transform="translate(11.000000, 10.000000)">
                                    <g id="Pause">
                                        <path d="M2.16,0.8 L3.92,0.8 C5.0245695,0.8 5.92,1.6954305 5.92,2.8 L5.92,13.2 C5.92,14.3045695 5.0245695,15.2 3.92,15.2 L2.16,15.2 C1.0554305,15.2 0.16,14.3045695 0.16,13.2 L0.16,2.8 C0.16,1.6954305 1.0554305,0.8 2.16,0.8 Z M10.08,0.8 L11.84,0.8 C12.9445695,0.8 13.84,1.6954305 13.84,2.8 L13.84,13.2 C13.84,14.3045695 12.9445695,15.2 11.84,15.2 L10.08,15.2 C8.9754305,15.2 8.08,14.3045695 8.08,13.2 L8.08,2.8 C8.08,1.6954305 8.9754305,0.8 10.08,0.8 Z" id="path-46" fill="#D8D8D8"></path>
                                    </g>
                                    <g id="Colour/@prism-prime-Clipped">
                                        <mask id="mask-6" fill="white">
                                            <use xlink:href="#path-5"></use>
                                        </mask>
                                        <g id="path-46"></g>
                                        <g id="Colour/@prism-prime" mask="url(#mask-6)" fill="#0C75B7">
                                            <g transform="translate(-11.000000, -10.000000)" id="Rectangle">
                                                <rect x="0" y="0" width="36" height="36"></rect>
                                            </g>
                                        </g>
                                    </g>
                                </g>
                            </g>
                        </g>
                        <g id="Background" fill="#979797" fill-rule="nonzero">
                            <path d="M18,36 C8.0588745,36 0,27.9411255 0,18 C0,8.0588745 8.0588745,0 18,0 C27.9411255,0 36,8.0588745 36,18 C36,27.9411255 27.9411255,36 18,36 Z M18,35.027027 C27.4037674,35.027027 35.027027,27.4037674 35.027027,18 C35.027027,8.59623264 27.4037674,0.972972973 18,0.972972973 C8.59623264,0.972972973 0.972972973,8.59623264 0.972972973,18 C0.972972973,27.4037674 8.59623264,35.027027 18,35.027027 Z" id="path-48"></path>
                        </g>
                        <g id="Colour/@prism-dark-Clipped">
                            <mask id="mask-8" fill="white">
                                <use xlink:href="#path-7"></use>
                            </mask>
                            <g id="path-48"></g>
                            <g id="Colour/@prism-dark" mask="url(#mask-8)" fill="#005285" fill-rule="nonzero">
                                <rect id="Rectangle" x="0" y="0" width="36" height="36"></rect>
                            </g>
                        </g>
                    </g>
                </g>
            </g>
        </g>
    </g>
</svg>