
<svg width="38px" height="37px" viewBox="0 0 38 37" version="1.1" xmlns="http://www.w3.org/2000/svg" xmlns:xlink="http://www.w3.org/1999/xlink">
    <defs>
        <path d="M13.7791012,23.7626133 L7.69715548,26.4003003 C6.80026889,26.7892723 5.75051985,26.394098 5.35247538,25.517654 C5.22654228,25.2403651 5.17715783,24.9356708 5.20924174,24.6339249 L5.89691804,18.1664005 C5.9488052,17.6784071 5.78698975,17.1917415 5.45148655,16.8267499 L1.00496106,11.9894057 C0.34924507,11.2760569 0.40945388,10.1783263 1.13944121,9.5375559 C1.37039421,9.3348293 1.6516741,9.1947767 1.95525955,9.1313502 L8.46221263,7.77188736 C8.95318105,7.66931196 9.3768194,7.36853612 9.6283674,6.94393779 L12.9622093,1.31660761 C13.4538411,0.48676183 14.5408012,0.20350126 15.3900027,0.68392742 C15.6586726,0.83592439 15.8818976,1.05406145 16.0374398,1.31660761 L19.3712817,6.94393779 C19.6228297,7.36853612 20.046468,7.66931196 20.5374364,7.77188736 L27.0443895,9.1313502 C28.0039507,9.3318262 28.6155202,10.2544921 28.4103682,11.1921822 C28.3454623,11.4888481 28.2021431,11.7637168 27.994688,11.9894057 L23.5481625,16.8267499 C23.2126593,17.1917415 23.0508438,17.6784071 23.102731,18.1664005 L23.7904073,24.6339249 C23.8918169,25.5876717 23.1828275,26.4411711 22.2068352,26.5402693 C21.8980512,26.5716219 21.5862501,26.5233631 21.3024936,26.4003003 L15.2205478,23.7626133 C14.7616474,23.5635922 14.2380016,23.5635922 13.7791012,23.7626133 L13.7791012,23.7626133 Z" id="path-1"></path>
        <polygon id="path-3" points="0 0 31 0 31 29 0 29"></polygon>
    </defs>
    <g id="Symbols" stroke="none" stroke-width="1" fill="none" fill-rule="evenodd">
        <g id="Group" transform="translate(-33.000000, 2.000000)">
            <g id="atom/icon/star" transform="translate(35.545455, 0.000000)">
                <path d="M16.4998245,29.1750283 L10.6918653,31.6938898 C8.55124372,32.6222587 6.04184755,31.6776057 5.07622746,29.5514313 C4.76597525,28.8682948 4.64395211,28.1154311 4.72325498,27.3695959 L5.37290995,21.2596581 L1.16440737,16.6812574 C-0.44183799,14.9338342 -0.29321761,12.224179 1.49022039,10.6587077 C2.04593266,10.170913 2.71944472,9.83556327 3.44398715,9.6841885 L9.64384475,8.38888545 L12.8113342,3.0423484 C13.9999975,1.03595424 16.592438,0.36036722 18.6210055,1.50800643 C19.2686514,1.8744048 19.8094928,2.4029189 20.1883148,3.0423484 L23.3558043,8.38888545 L29.5556619,9.6841885 C31.8642354,10.1665064 33.3573986,12.4192198 32.8526007,14.7265046 C32.6928804,15.4565395 32.3414295,16.1305791 31.8352417,16.6812574 L27.6267391,21.2596581 L28.2763941,27.3695959 C28.5256385,29.7137137 26.8011404,31.7897082 24.4593763,32.0274812 C23.7255127,32.1019946 22.9842458,31.9872655 22.3077838,31.6938898 L16.4998245,29.1750283 Z" id="Path" stroke="#5D5D5D" stroke-width="5"></path>
                <g id="Colour/@Hash-Clipped" transform="translate(2.000000, 3.000000)">
                    <mask id="mask-2" fill="white">
                        <use xlink:href="#path-1"></use>
                    </mask>
                    <g id="path-5"></g>
                    <g id="Colour/@Hash" mask="url(#mask-2)">
                        <g transform="translate(-1.000000, -1.000000)" id="Group-Clipped">
                            <g>
                                <mask id="mask-4" fill="white">
                                    <use xlink:href="#path-3"></use>
                                </mask>
                                <g id="path-7"></g>
                                <g id="Group" mask="url(#mask-4)">
                                    <g transform="translate(-27.000000, -29.000000)">
                                        <g transform="translate(42.318015, 42.624862) rotate(-45.191276) translate(-42.318015, -42.624862) translate(11.818015, 14.124862)">
                                            <path d="M-26.7417208,28.4653234 L29.1272112,28.5211973" id="Path-2" stroke="#979797" stroke-width="0.5" transform="translate(1.192745, 28.493260) rotate(-90.249842) translate(-1.192745, -28.493260) "></path>
                                            <path d="M-24.1933662,28.4509037 L31.6755657,28.5067776" id="Path-2-Copy" stroke="#979797" stroke-width="0.5" transform="translate(3.741100, 28.478841) rotate(-90.249842) translate(-3.741100, -28.478841) "></path>
                                            <path d="M-21.8534114,28.4376631 L34.0155205,28.4935369" id="Path-2-Copy-2" stroke="#979797" stroke-width="0.5" transform="translate(6.081055, 28.465600) rotate(-90.249842) translate(-6.081055, -28.465600) "></path>
                                            <path d="M-19.5134577,28.4244235 L36.3554742,28.4802974" id="Path-2-Copy-3" stroke="#979797" stroke-width="0.5" transform="translate(8.421008, 28.452360) rotate(-90.249842) translate(-8.421008, -28.452360) "></path>
                                            <path d="M-17.1735049,28.4111829 L38.695427,28.4670568" id="Path-2-Copy-4" stroke="#979797" stroke-width="0.5" transform="translate(10.760961, 28.439120) rotate(-90.249842) translate(-10.760961, -28.439120) "></path>
                                            <path d="M-14.8335511,28.3979434 L41.0353808,28.4538172" id="Path-2-Copy-5" stroke="#979797" stroke-width="0.5" transform="translate(13.100915, 28.425880) rotate(-90.249842) translate(-13.100915, -28.425880) "></path>
                                            <path d="M-12.4935984,28.3847027 L43.3753335,28.4405766" id="Path-2-Copy-6" stroke="#979797" stroke-width="0.5" transform="translate(15.440868, 28.412640) rotate(-90.249842) translate(-15.440868, -28.412640) "></path>
                                            <path d="M-10.1536436,28.3714621 L45.7152883,28.427336" id="Path-2-Copy-7" stroke="#979797" stroke-width="0.5" transform="translate(17.780822, 28.399399) rotate(-90.249842) translate(-17.780822, -28.399399) "></path>
                                            <path d="M-7.81368987,28.3582226 L48.0552421,28.4140964" id="Path-2-Copy-8" stroke="#979797" stroke-width="0.5" transform="translate(20.120776, 28.386159) rotate(-90.249842) translate(-20.120776, -28.386159) "></path>
                                            <path d="M-5.47373712,28.3449819 L50.3951948,28.4008558" id="Path-2-Copy-9" stroke="#979797" stroke-width="0.5" transform="translate(22.460729, 28.372919) rotate(-90.249842) translate(-22.460729, -28.372919) "></path>
                                            <path d="M-3.13378332,28.3317423 L52.7351486,28.3876162" id="Path-2-Copy-10" stroke="#979797" stroke-width="0.5" transform="translate(24.800683, 28.359679) rotate(-90.249842) translate(-24.800683, -28.359679) "></path>
                                            <path d="M-0.793829575,28.3185008 L55.0751024,28.3743746" id="Path-2-Copy-11" stroke="#979797" stroke-width="0.5" transform="translate(27.140636, 28.346438) rotate(-90.249842) translate(-27.140636, -28.346438) "></path>
                                            <path d="M1.54612418,28.3052611 L57.4150561,28.361135" id="Path-2-Copy-12" stroke="#979797" stroke-width="0.5" transform="translate(29.480590, 28.333198) rotate(-90.249842) translate(-29.480590, -28.333198) "></path>
                                            <path d="M3.88607798,28.2920215 L59.7550099,28.3478954" id="Path-2-Copy-13" stroke="#979797" stroke-width="0.5" transform="translate(31.820544, 28.319958) rotate(-90.249842) translate(-31.820544, -28.319958) "></path>
                                            <path d="M6.22603072,28.278781 L62.0949627,28.3346548" id="Path-2-Copy-14" stroke="#979797" stroke-width="0.5" transform="translate(34.160497, 28.306718) rotate(-90.249842) translate(-34.160497, -28.306718) "></path>
                                            <path d="M8.56598548,28.2655403 L64.4349174,28.3214142" id="Path-2-Copy-15" stroke="#979797" stroke-width="0.5" transform="translate(36.500451, 28.293477) rotate(-90.249842) translate(-36.500451, -28.293477) "></path>
                                            <path d="M10.9059382,28.2522997 L66.7748702,28.3081736" id="Path-2-Copy-16" stroke="#979797" stroke-width="0.5" transform="translate(38.840404, 28.280237) rotate(-90.249842) translate(-38.840404, -28.280237) "></path>
                                            <path d="M13.245892,28.2390602 L69.114824,28.294934" id="Path-2-Copy-17" stroke="#979797" stroke-width="0.5" transform="translate(41.180358, 28.266997) rotate(-90.249842) translate(-41.180358, -28.266997) "></path>
                                            <path d="M15.5858458,28.2258206 L71.4547778,28.2816945" id="Path-2-Copy-18" stroke="#979797" stroke-width="0.5" transform="translate(43.520312, 28.253758) rotate(-90.249842) translate(-43.520312, -28.253758) "></path>
                                            <path d="M17.9257985,28.21258 L73.7947305,28.2684539" id="Path-2-Copy-19" stroke="#979797" stroke-width="0.5" transform="translate(45.860265, 28.240517) rotate(-90.249842) translate(-45.860265, -28.240517) "></path>
                                            <path d="M20.259007,28.2250958 L76.127939,28.2809697" id="Path-2-Copy-20" stroke="#979797" stroke-width="0.5" transform="translate(48.193473, 28.253033) rotate(-90.249842) translate(-48.193473, -28.253033) "></path>
                                            <path d="M22.598983,28.2250959 L78.467915,28.2809698" id="Path-2-Copy-21" stroke="#979797" stroke-width="0.5" transform="translate(50.533449, 28.253033) rotate(-90.249842) translate(-50.533449, -28.253033) "></path>
                                            <path d="M24.9389591,28.2250961 L80.8078911,28.28097" id="Path-2-Copy-22" stroke="#979797" stroke-width="0.5" transform="translate(52.873425, 28.253033) rotate(-90.249842) translate(-52.873425, -28.253033) "></path>
                                            <path d="M27.2789351,28.2250962 L83.1478671,28.2809701" id="Path-2-Copy-23" stroke="#979797" stroke-width="0.5" transform="translate(55.213401, 28.253033) rotate(-90.249842) translate(-55.213401, -28.253033) "></path>
                                            <path d="M29.6189111,28.2250964 L85.4878431,28.2809703" id="Path-2-Copy-24" stroke="#979797" stroke-width="0.5" transform="translate(57.553377, 28.253033) rotate(-90.249842) translate(-57.553377, -28.253033) "></path>
                                            <path d="M31.958886,28.2250955 L87.827818,28.2809694" id="Path-2-Copy-25" stroke="#979797" stroke-width="0.5" transform="translate(59.893352, 28.253032) rotate(-90.249842) translate(-59.893352, -28.253032) "></path>
                                        </g>
                                    </g>
                                </g>
                            </g>
                        </g>
                    </g>
                </g>
            </g>
        </g>
    </g>
</svg>